<svg width="100%" height="auto" viewBox="0 0 68 59" fill="none" xmlns="http://www.w3.org/2000/svg">
<path d="M7.37688 11.7317C10.46 11.6649 12.9053 9.11147 12.8385 6.02833C12.7718 2.9452 10.2183 0.499928 7.13521 0.566664C4.05208 0.6334 1.6068 3.18687 1.67354 6.27001C1.74028 9.35314 4.29375 11.7984 7.37688 11.7317Z" fill="currentColor"></path>
<path d="M58.4804 39.6692C52.9969 39.6692 49.3792 35.8251 49.3792 30.1161C49.3792 24.7457 52.1492 21.2414 56.3889 21.2414C57.3498 21.2414 58.4236 21.2977 59.4979 21.4109V27.007H66.7898V16.7188C64.0763 15.5321 60.0067 14.6841 56.3889 14.6841C49.8086 14.6841 44.8464 18.1173 42.6538 23.6338C42.3083 22.2132 41.5926 20.8798 40.4698 19.602L44.1438 15.9274L38.9433 10.7268L34.0817 15.5321C32.386 14.9665 30.5771 14.6841 28.655 14.6841C20.5718 14.6841 15.0882 19.2065 15.0882 25.6506C15.0882 28.1946 15.9928 30.3987 17.7451 32.2642C15.4838 34.1297 14.0705 36.6734 14.0705 39.1042C14.0705 39.2202 14.0839 39.3297 14.0892 39.4432H11.701V15.2492H0V21.5238H4.01361V39.4429H0V45.7175H14.6347C13.5595 46.8633 12.9404 48.2461 12.9404 49.7312C12.9404 55.0446 19.1584 58.7193 28.3723 58.7193C38.4908 58.7193 45.2179 54.423 45.2179 47.9786C45.2179 42.6085 41.3738 39.1039 35.4947 39.1039H23.3978C21.9845 39.1039 20.967 38.3125 20.967 37.0124C20.967 36.2773 21.306 35.5988 22.0411 34.9774C24.0195 35.7688 26.3371 36.1644 28.994 36.1644C34.775 36.1644 39.2366 34.1087 41.4203 30.747C41.5447 40.0236 47.4949 46.2831 56.3886 46.2831C60.4022 46.2831 64.7545 45.3783 67.2985 44.0218V37.7475C64.8677 38.9341 61.476 39.6692 58.4802 39.6692H58.4804ZM23.6242 45.322H33.8561C35.8908 45.322 37.3041 46.5089 37.3041 48.3178C37.3041 50.9747 33.7996 52.727 28.7685 52.727C23.7374 52.727 20.1765 50.9747 20.1765 48.3178C20.1765 46.5089 21.5329 45.322 23.6245 45.322H23.6242ZM28.9943 31.077C25.4328 31.077 23.0023 28.872 23.0023 25.6503C23.0023 22.4287 25.4328 20.2237 28.9943 20.2237C32.5557 20.2237 34.9297 22.4281 34.9297 25.6503C34.9297 28.8725 32.5557 31.077 28.9943 31.077Z" fill="currentColor"></path>
</svg>